<!-- Generator: Adobe Illustrator 17.0.0, SVG Export Plug-In  -->
<svg version="1.1"
	 xmlns="http://www.w3.org/2000/svg" xmlns:xlink="http://www.w3.org/1999/xlink" xmlns:a="http://ns.adobe.com/AdobeSVGViewerExtensions/3.0/"
	 x="0px" y="0px" width="1264.98px" height="327.011px" viewBox="0 0 1264.98 327.011" enable-background="new 0 0 1264.98 327.011"
	 xml:space="preserve">
<defs>
</defs>
<path fill="#83CEE3" d="M1260.202,0c-19.969,0-30.078,10.226-39.855,20.115c-10.026,10.143-19.498,19.723-38.914,19.723
	c-19.415,0-28.884-9.58-38.911-19.721C1132.747,10.226,1122.637,0,1102.67,0s-30.077,10.226-39.853,20.116
	c-10.027,10.142-19.496,19.721-38.91,19.721s-28.883-9.58-38.908-19.721C975.223,10.226,965.114,0,945.148,0
	c-19.968,0-30.076,10.226-39.852,20.116c-10.026,10.142-19.496,19.721-38.91,19.721c-19.414,0-28.884-9.58-38.91-19.721
	C817.7,10.226,807.59,0,787.623,0c-19.967,0-30.076,10.226-39.851,20.116c-10.026,10.142-19.496,19.721-38.908,19.721
	c-19.413,0-28.884-9.58-38.91-19.721C660.178,10.226,650.069,0,630.101,0s-30.077,10.226-39.853,20.116
	c-10.026,10.142-19.496,19.721-38.91,19.721c-19.413,0-28.883-9.58-38.908-19.721C502.655,10.226,492.547,0,472.58,0
	c-19.967,0-30.077,10.226-39.853,20.116c-10.026,10.142-19.496,19.721-38.91,19.721c-19.413,0-28.884-9.58-38.91-19.721
	C345.131,10.226,335.022,0,315.055,0c-19.967,0-30.076,10.226-39.851,20.116c-10.025,10.142-19.495,19.721-38.908,19.721
	c-19.413,0-28.883-9.58-38.91-19.721C187.609,10.226,177.5,0,157.533,0s-30.077,10.226-39.853,20.116
	c-10.026,10.142-19.496,19.721-38.911,19.721c-19.416,0-28.887-9.58-38.914-19.723C30.078,10.226,19.969,0,0,0v327.011h630.101
	h634.879V0.212C1263.45,0.077,1261.863,0,1260.202,0z"/>
</svg>